<svg width="38" height="12" viewBox="0 0 38 12" fill="none" xmlns="http://www.w3.org/2000/svg">
<path d="M7.526 10.104V11H0.596V1.2H7.316V2.096H1.632V5.582H6.7V6.464H1.632V10.104H7.526ZM18.9352 3.58C19.8592 3.58 20.5826 3.846 21.1052 4.378C21.6372 4.91 21.9032 5.694 21.9032 6.73V11H20.9092V6.828C20.9092 6.06267 20.7226 5.47933 20.3492 5.078C19.9852 4.67667 19.4672 4.476 18.7952 4.476C18.0299 4.476 17.4279 4.714 16.9892 5.19C16.5506 5.65667 16.3312 6.30533 16.3312 7.136V11H15.3372V6.828C15.3372 6.06267 15.1506 5.47933 14.7772 5.078C14.4132 4.67667 13.8906 4.476 13.2092 4.476C12.4532 4.476 11.8512 4.714 11.4032 5.19C10.9646 5.65667 10.7452 6.30533 10.7452 7.136V11H9.75123V3.636H10.7032V4.98C10.9646 4.532 11.3286 4.18667 11.7952 3.944C12.2619 3.70133 12.7986 3.58 13.4052 3.58C14.0212 3.58 14.5532 3.71067 15.0012 3.972C15.4586 4.23333 15.7992 4.62067 16.0232 5.134C16.2939 4.64867 16.6812 4.27067 17.1852 4C17.6986 3.72 18.2819 3.58 18.9352 3.58ZM27.1749 3.58C28.1362 3.58 28.8736 3.82267 29.3869 4.308C29.9002 4.784 30.1569 5.49333 30.1569 6.436V11H29.2049V9.852C28.9809 10.2347 28.6496 10.5333 28.2109 10.748C27.7816 10.9627 27.2682 11.07 26.6709 11.07C25.8496 11.07 25.1962 10.874 24.7109 10.482C24.2256 10.09 23.9829 9.572 23.9829 8.928C23.9829 8.30267 24.2069 7.79867 24.6549 7.416C25.1122 7.03333 25.8356 6.842 26.8249 6.842H29.1629V6.394C29.1629 5.75933 28.9856 5.27867 28.6309 4.952C28.2762 4.616 27.7582 4.448 27.0769 4.448C26.6102 4.448 26.1622 4.52733 25.7329 4.686C25.3036 4.83533 24.9349 5.04533 24.6269 5.316L24.1789 4.574C24.5522 4.25667 25.0002 4.014 25.5229 3.846C26.0456 3.66867 26.5962 3.58 27.1749 3.58ZM26.8249 10.286C27.3849 10.286 27.8656 10.16 28.2669 9.908C28.6682 9.64667 28.9669 9.27333 29.1629 8.788V7.584H26.8529C25.5929 7.584 24.9629 8.02267 24.9629 8.9C24.9629 9.32933 25.1262 9.67 25.4529 9.922C25.7796 10.1647 26.2369 10.286 26.8249 10.286ZM32.8567 3.636H33.8507V11H32.8567V3.636ZM33.3607 2.026C33.1554 2.026 32.9827 1.956 32.8427 1.816C32.7027 1.676 32.6327 1.508 32.6327 1.312C32.6327 1.12533 32.7027 0.962 32.8427 0.821999C32.9827 0.681999 33.1554 0.611999 33.3607 0.611999C33.566 0.611999 33.7387 0.681999 33.8787 0.821999C34.0187 0.952666 34.0887 1.11133 34.0887 1.298C34.0887 1.50333 34.0187 1.676 33.8787 1.816C33.7387 1.956 33.566 2.026 33.3607 2.026ZM36.6165 0.611999H37.6105V11H36.6165V0.611999Z" fill="#1F2041" fill-opacity="0.25"/>
</svg>
